<?xml version="1.0" standalone="no"?><!DOCTYPE svg PUBLIC "-//W3C//DTD SVG 1.1//EN" "http://www.w3.org/Graphics/SVG/1.1/DTD/svg11.dtd"><svg height="1024" node-id="1" sillyvg="true" template-height="1024" template-width="1360" version="1.1" viewBox="0 0 1360 1024" width="1360" xmlns="http://www.w3.org/2000/svg" xmlns:xlink="http://www.w3.org/1999/xlink"><defs node-id="33"><linearGradient gradientUnits="userSpaceOnUse" id="paint0_linear_1608_18823" node-id="20" spreadMethod="pad" x1="672" x2="866.618" y1="413.496" y2="413.496"><stop offset="0" stop-color="#88eebe"></stop><stop offset="1" stop-color="#70d1d6"></stop></linearGradient><linearGradient gradientUnits="userSpaceOnUse" id="paint1_linear_1608_18823" node-id="23" spreadMethod="pad" x1="809.15" x2="938.459" y1="430.445" y2="430.445"><stop offset="0" stop-color="#88eebe"></stop><stop offset="1" stop-color="#70d1d6"></stop></linearGradient><linearGradient gradientUnits="userSpaceOnUse" id="paint2_linear_1608_18823" node-id="26" spreadMethod="pad" x1="911.997" x2="960.003" y1="360.003" y2="360.003"><stop offset="0" stop-color="#fdc67a"></stop><stop offset="1" stop-color="#fedab5"></stop></linearGradient><linearGradient gradientUnits="userSpaceOnUse" id="paint3_linear_1608_18823" node-id="29" spreadMethod="pad" x1="847.995" x2="1233.39" y1="816.693" y2="816.693"><stop offset="0" stop-color="#fdc570"></stop><stop offset="1" stop-color="#fab245"></stop></linearGradient></defs><path d="M 1328.00 0.00 L 560.00 0.00 C 542.33 0.00 528.00 14.33 528.00 32.00 L 528.00 448.00 C 528.00 465.67 542.33 480.00 560.00 480.00 L 1328.00 480.00 C 1345.67 480.00 1360.00 465.67 1360.00 448.00 L 1360.00 32.00 C 1360.00 14.33 1345.67 0.00 1328.00 0.00 Z" fill="#fbfbfb" fill-rule="nonzero" node-id="60" stroke="none" target-height="480" target-width="832" target-x="528" target-y="0"></path><path d="M 1277.59 80.00 L 1006.14 80.00 L 1006.14 113.81 L 1277.59 113.81 L 1277.59 80.00 Z M 1277.59 151.25 L 608.00 151.25 L 608.00 185.06 L 1277.59 185.06 L 1277.59 151.25 Z M 1277.59 222.49 L 608.00 222.49 L 608.00 256.30 L 1277.59 256.30 L 1277.59 222.49 Z M 1277.59 294.94 L 608.00 294.94 L 608.00 328.75 L 1277.59 328.75 L 1277.59 294.94 Z M 1277.59 366.19 L 608.00 366.19 L 608.00 400.00 L 1277.59 400.00 L 1277.59 366.19 Z" fill="#d8e5ed" fill-rule="evenodd" node-id="62" stroke="none" target-height="320" target-width="669.58997" target-x="608" target-y="80"></path><path d="M 1056.00 176.00 L 64.00 176.00 C 28.65 176.00 0.00 204.65 0.00 240.00 L 0.00 880.00 C 0.00 915.35 28.65 944.00 64.00 944.00 L 1056.00 944.00 C 1091.35 944.00 1120.00 915.35 1120.00 880.00 L 1120.00 240.00 C 1120.00 204.65 1091.35 176.00 1056.00 176.00 Z" fill="#ffffff" fill-rule="nonzero" node-id="64" stroke="none" target-height="768" target-width="1120" target-x="0" target-y="176"></path><path d="M 992.00 304.00 L 624.00 304.00 C 615.16 304.00 608.00 311.16 608.00 320.00 L 608.00 480.00 C 608.00 488.84 615.16 496.00 624.00 496.00 L 992.00 496.00 C 1000.84 496.00 1008.00 488.84 1008.00 480.00 L 1008.00 320.00 C 1008.00 311.16 1000.84 304.00 992.00 304.00 Z" fill="#d8e5ed" fill-rule="nonzero" node-id="66" stroke="none" target-height="192" target-width="400" target-x="608" target-y="304"></path><path d="M 769.31 363.00 L 817.97 413.50 L 866.61 464.00 L 769.31 464.00 L 672.00 464.00 L 720.65 413.50 L 769.31 363.00 Z" fill="url(#paint0_linear_1608_18823)" fill-rule="nonzero" node-id="68" stroke="none" target-height="101" target-width="194.60999" target-x="672" target-y="363"></path><path d="M 873.80 396.89 L 906.13 430.44 L 938.46 464.00 L 873.80 464.00 L 809.15 464.00 L 841.47 430.44 L 873.80 396.89 Z" fill="url(#paint1_linear_1608_18823)" fill-rule="nonzero" node-id="70" stroke="none" target-height="67.109985" target-width="129.31" target-x="809.15" target-y="396.89"></path><path d="M 936.00 384.00 C 949.25 384.00 960.00 373.25 960.00 360.00 C 960.00 346.75 949.25 336.00 936.00 336.00 C 922.75 336.00 912.00 346.75 912.00 360.00 C 912.00 373.25 922.75 384.00 936.00 384.00 Z" fill="url(#paint2_linear_1608_18823)" fill-rule="nonzero" node-id="72" stroke="none" target-height="48" target-width="48" target-x="912" target-y="336"></path><path d="M 240.00 864.00 C 310.69 864.00 368.00 806.69 368.00 736.00 C 368.00 665.31 310.69 608.00 240.00 608.00 C 169.31 608.00 112.00 665.31 112.00 736.00 C 112.00 806.69 169.31 864.00 240.00 864.00 Z M 240.00 803.39 C 202.79 803.39 172.62 773.22 172.62 736.00 C 172.62 698.78 202.79 668.61 240.00 668.61 C 277.21 668.61 307.38 698.78 307.38 736.00 C 307.38 773.22 277.21 803.39 240.00 803.39 Z" fill="#b5d1de" fill-rule="nonzero" node-id="74" stroke="none" target-height="256" target-width="256" target-x="112" target-y="608"></path><path d="M 112.00 320.00 C 112.00 311.16 119.16 304.00 128.00 304.00 L 512.00 304.00 C 520.84 304.00 528.00 311.16 528.00 320.00 L 528.00 480.00 C 528.00 488.84 520.84 496.00 512.00 496.00 L 128.00 496.00 C 119.16 496.00 112.00 488.84 112.00 480.00 L 112.00 320.00 Z" fill="#d8e5ed" fill-rule="evenodd" node-id="76" stroke="none" target-height="192" target-width="416" target-x="112" target-y="304"></path><path d="M 218.28 454.04 C 188.78 454.04 164.88 430.13 164.88 400.63 C 164.88 371.14 188.78 347.23 218.28 347.23 C 247.77 347.23 271.68 371.14 271.68 400.63 C 271.68 430.13 247.77 454.04 218.28 454.04 Z M 322.54 347.23 L 442.07 347.23 L 442.07 370.12 L 322.54 370.12 L 322.54 347.23 Z M 322.54 431.15 L 442.07 431.15 L 442.07 454.04 L 322.54 454.04 L 322.54 431.15 Z M 322.54 389.19 L 442.07 389.19 L 442.07 412.08 L 322.54 412.08 L 322.54 389.19 Z" fill="#ffffff" fill-rule="evenodd" node-id="78" stroke="none" target-height="106.81" target-width="277.19" target-x="164.88" target-y="347.23"></path><path d="M 233.15 378.92 C 236.59 375.22 242.37 375.01 246.07 378.44 C 249.77 381.88 249.99 387.66 246.56 391.36 L 218.98 421.07 C 215.83 424.48 210.62 424.97 206.88 422.23 L 187.74 408.22 C 183.67 405.23 182.78 399.51 185.77 395.44 C 188.75 391.37 194.47 390.48 198.55 393.46 L 211.12 402.67 L 233.15 378.92 Z" fill="#d8e5ed" fill-rule="nonzero" node-id="80" stroke="none" target-height="49.95999" target-width="67.21001" target-x="182.78" target-y="375.01"></path><path d="M 480.00 758.37 L 576.00 758.37 L 576.00 848.00 L 480.00 848.00 L 480.00 758.37 Z" fill="#d8e5ed" fill-rule="evenodd" node-id="82" stroke="none" target-height="89.630005" target-width="96" target-x="480" target-y="758.37"></path><path d="M 624.00 683.09 L 720.00 683.09 L 720.00 848.00 L 624.00 848.00 L 624.00 683.09 Z" fill="#ffe5be" fill-rule="evenodd" node-id="84" stroke="none" target-height="164.90997" target-width="96" target-x="624" target-y="683.09"></path><path d="M 768.00 607.80 L 864.00 607.80 L 864.00 848.00 L 768.00 848.00 L 768.00 607.80 Z" fill="#d8e5ed" fill-rule="evenodd" node-id="86" stroke="none" target-height="240.20001" target-width="96" target-x="768" target-y="607.8"></path><path d="M 912.00 560.00 L 1008.00 560.00 L 1008.00 848.00 L 912.00 848.00 L 912.00 560.00 Z" fill="#fecd8d" fill-rule="evenodd" node-id="88" stroke="none" target-height="288" target-width="96" target-x="912" target-y="560"></path><path d="M 1040.70 1009.39 C 1147.12 1009.39 1233.39 923.12 1233.39 816.70 C 1233.39 710.27 1147.12 624.00 1040.70 624.00 C 934.27 624.00 848.00 710.27 848.00 816.70 C 848.00 923.12 934.27 1009.39 1040.70 1009.39 Z" fill="url(#paint3_linear_1608_18823)" fill-rule="nonzero" node-id="90" stroke="none" target-height="385.39" target-width="385.39" target-x="848" target-y="624"></path><path d="M 1108.09 833.76 L 1054.24 833.76 L 1054.24 806.84 L 1108.09 806.84 C 1115.49 806.84 1121.55 800.78 1121.55 793.37 C 1121.55 785.97 1115.49 779.91 1108.09 779.91 L 1070.40 779.91 L 1107.42 742.89 C 1112.80 737.50 1112.80 729.42 1107.42 724.04 C 1102.03 718.65 1093.96 718.65 1088.57 724.04 L 1040.78 771.83 L 992.98 724.04 C 987.60 718.65 979.52 718.65 974.14 724.04 C 968.75 729.42 968.75 737.50 974.14 742.89 L 1011.16 779.91 L 973.46 779.91 C 966.06 779.91 960.00 785.97 960.00 793.37 C 960.00 800.78 966.06 806.84 973.46 806.84 L 1027.31 806.84 L 1027.31 833.76 L 973.46 833.76 C 966.06 833.76 960.00 839.82 960.00 847.22 C 960.00 854.63 966.06 860.69 973.46 860.69 L 1027.31 860.69 L 1027.31 914.54 C 1027.31 921.94 1033.37 928.00 1040.78 928.00 C 1048.18 928.00 1054.24 921.94 1054.24 914.54 L 1054.24 860.69 L 1108.09 860.69 C 1115.49 860.69 1121.55 854.63 1121.55 847.22 C 1121.55 839.82 1115.49 833.76 1108.09 833.76 Z" fill="#ffffff" fill-rule="nonzero" node-id="92" stroke="none" target-height="209.34998" target-width="161.55005" target-x="960" target-y="718.65"></path></svg>